<svg class="art art--flora-02" viewBox="483.73 1635.30 200.68 343.91" fill="none" xmlns="http://www.w3.org/2000/svg" aria-hidden="true" focusable="false"><path d="M593.183,1813.04c15.472,3.48 31.822,2.98 47.053,-1.43c10.213,-2.96 20.126,-7.81 27.421,-15.55c3.496,-3.7 6.47,-8.58 5.677,-13.61c-0.581,-3.68 -3.141,-6.82 -6.215,-8.93c-9.763,-6.7 -23.127,-3.81 -33.939,1.02c-14.943,6.67 -28.421,16.6 -39.223,28.9c-1.153,1.31 -2.398,2.73 -4.103,3.11c-1.346,0.3 -2.736,-0.11 -4.057,-0.5c-20.52,-6.11 -44.189,-9.25 -62.122,2.45c-4.498,2.93 -8.627,7.03 -9.787,12.28c-1.91,8.63 5.313,17.27 13.814,19.69c8.501,2.43 17.626,0.1 25.838,-3.17c14.381,-5.73 27.588,-14.39 39.643,-24.26Z" style="fill:#98ca7c;fill-rule:nonzero;"/><path d="M678.135,1963.75c-1.016,-3.68 -4.86,-5.38 -7.34,-7.98c-3.018,-2.66 -5.811,-5.56 -8.571,-8.48c-11.9,-12.81 -18.304,-20.8 -28.036,-37.39c-11.514,-20.85 -18.793,-37.35 -25.624,-56.48c-3.964,-11.49 -7.967,-23 -10.918,-34.8c-1.312,-5.4 -2.32,-10.87 -3.339,-16.33c-0.655,-2.67 -0.66,-5.78 -2.513,-7.94c-4.806,-6.52 -15.262,-1.33 -13.122,6.54c2.104,9.02 3.303,18.26 5.935,27.17c5.487,18.61 11.702,37.07 19.586,54.82c6.311,14.27 13.029,28.41 21.25,41.7c9.381,14.47 20.302,27.95 32.701,39.94c1.923,1.78 3.887,3.51 5.884,5.21c1.501,1.3 2.927,2.68 4.881,3.24c5.57,1.41 10.736,-3.56 9.226,-9.22Z" style="fill:#6b8b51;fill-rule:nonzero;"/><path d="M592.296,1803.41c16.362,-5.53 26.198,-24.87 32.055,-41.12c5.858,-16.25 8.121,-33.54 10.165,-50.7c2.531,-21.24 4.759,-42.99 0.307,-63.88c-0.133,-0.63 -0.958,-0.8 -1.33,-0.28c-8.751,12.17 -16.284,25.22 -22.45,38.88c-0.214,0.47 -0.841,0.59 -1.199,0.21c-13.072,-13.77 -20.054,-32.95 -34.615,-45.05c-0.443,-0.37 -1.122,-0.1 -1.197,0.47l-7.191,54.69c-0.089,0.68 -0.969,0.87 -1.338,0.3c-9.06,-14.11 -19.263,-27.48 -30.478,-39.95c-0.413,-0.46 -1.185,-0.23 -1.285,0.38c-2.523,15.43 -3.917,31.05 -4.169,46.69c-0.009,0.56 -0.623,0.91 -1.107,0.62c-13.201,-7.88 -25.765,-16.82 -37.529,-26.71c-0.494,-0.41 -1.251,-0.04 -1.208,0.61c1.631,24.19 12.412,46.84 23.71,68.36c7.74,14.74 16.072,29.62 28.613,40.58c12.543,10.95 29.359,22.97 50.246,15.9Z" style="fill:#f3785f;fill-rule:nonzero;"/></svg>
